<svg xmlns="http://www.w3.org/2000/svg" viewBox="0 0 4975 4975"><defs><style>.cls-1,.cls-4{fill:#fff;}.cls-2,.cls-3{fill:#231f20;}.cls-3,.cls-4{stroke:#231f20;stroke-miterlimit:10;}.cls-3{stroke-width:98.24px;}.cls-4{stroke-width:65.49px;}</style></defs><title>logo</title><g id="Isolation_Mode" data-name="Isolation Mode"><path class="cls-1" d="M2487.5,4526C1363.43,4526,449,3611.54,449,2487.57S1363.43,449,2487.5,449,4526,1363.46,4526,2487.57,3611.56,4526,2487.5,4526Z"/><path class="cls-2" d="M2487.5,4596C1324.86,4596,379,3650.19,379,2487.57S1324.86,379,2487.5,379,4596,1324.9,4596,2487.57,3650.12,4596,2487.5,4596Zm0-4077.05C1402.06,519,519,1402.1,519,2487.57S1402.06,4456,2487.5,4456,4456,3573,4456,2487.57,3572.92,519,2487.5,519Z"/><path class="cls-3" d="M4036.57,2487.57c0,855.51-693.51,1549.07-1549.07,1549.07S938.39,3343.08,938.39,2487.57,1632,938.37,2487.5,938.37,4036.57,1632,4036.57,2487.57Z"/><path class="cls-1" d="M1740.42,1828.79l-5.33,6.56-252-171.3,211.63,220.66-5.33,6.43-252.19-173.67L1656,1926.58l-8.5,10.39-263.18-176s206.62,205.66,285.35,265.59c39.6,30.26,75.95,18.73,102.31,0l588.6,480.92c22.65,18.55,56.94,14,76.61-10s17.32-58.6-5.35-77.15l-589.6-481.92c24.82-59.43-13.72-98.16-13.72-98.16l-304.51-231.59Z"/><path class="cls-1" d="M3423.13,1854.72c132.48-124,172.9-295.85,90.6-383.71s-256.34-58.79-388.77,65.17c-109.46,102.49-155.86,237.47-122.27,331l-623.62,560.26a77.39,77.39,0,0,0,105.79,113l599.95-585.46C3175.9,1994.58,3313.8,1957.07,3423.13,1854.72Z"/><path class="cls-1" d="M3177,3726.57a56.54,56.54,0,0,0,16.65-5.65c2-1,4.12-2.24,6.16-3.51a69.8,69.8,0,0,0,31.21-41.94c28.05-93.64-85.12-280-179.23-454.29-71.09-132-147.18-171.37-192.9-182.68L2478.8,2425.1c-18.51-29.89-59.33-38.07-91.17-18.42s-42.54,60-24,89.88l745.27,1202.63C3123,3722.07,3150.63,3732.16,3177,3726.57Z"/><path class="cls-4" d="M2594.32,2497.46a157.09,157.09,0,1,1-157.08-157.08A157.07,157.07,0,0,1,2594.32,2497.46Z"/><path class="cls-1" d="M2540.66,1179.64a51.72,51.72,0,0,1-51.72,51.72h0a51.72,51.72,0,0,1-51.72-51.72V1060.81a51.72,51.72,0,0,1,51.72-51.72h0a51.72,51.72,0,0,1,51.72,51.72Z"/><path class="cls-1" d="M2540.66,3815.28a51.72,51.72,0,0,0-51.72-51.72h0a51.72,51.72,0,0,0-51.72,51.72v118.83a51.72,51.72,0,0,0,51.72,51.72h0a51.72,51.72,0,0,0,51.72-51.72Z"/><path class="cls-1" d="M3755.06,2394a51.72,51.72,0,0,0-51.72,51.72h0a51.72,51.72,0,0,0,51.72,51.72h118.83a51.72,51.72,0,0,0,51.72-51.72h0a51.72,51.72,0,0,0-51.72-51.72Z"/><path class="cls-1" d="M3873.88,2394a51.72,51.72,0,0,1,51.72,51.72h0a51.72,51.72,0,0,1-51.72,51.72H3755.06a51.72,51.72,0,0,1-51.72-51.72h0a51.72,51.72,0,0,1,51.72-51.72Z"/><path class="cls-1" d="M1000.58,2394a51.72,51.72,0,0,0-51.72,51.72h0a51.72,51.72,0,0,0,51.72,51.72h118.83a51.72,51.72,0,0,0,51.72-51.72h0a51.72,51.72,0,0,0-51.72-51.72Z"/></g></svg>